<svg width="335" height="81" viewBox="0 0 335 81" fill="none" xmlns="http://www.w3.org/2000/svg">
<path d="M332.454 42.9545H292.346C291.538 42.9545 291 42.4162 291 41.6086V36.8979C291 36.0904 291.538 35.552 292.346 35.552H332.454C333.262 35.552 333.8 36.0904 333.8 36.8979V41.6086C333.8 42.4162 333.127 42.9545 332.454 42.9545Z" stroke="#464646" stroke-width="2" stroke-miterlimit="10" stroke-linecap="round" stroke-linejoin="round"/>
<path d="M293.961 42.9546L298.537 64.22C298.672 64.893 299.21 65.2967 299.883 65.2967H324.917C325.59 65.2967 326.128 64.893 326.263 64.22L330.839 42.9546" stroke="#464646" stroke-width="2" stroke-miterlimit="10" stroke-linecap="round" stroke-linejoin="round"/>
<path d="M24.9322 55.44C21.9989 55.44 19.4655 54.8 17.3322 53.52C15.2255 52.2133 13.6255 50.4267 12.5322 48.16C11.4389 45.8933 10.8922 43.3333 10.8922 40.48C10.8922 37.2 11.5189 34.3867 12.7722 32.04C14.0522 29.6933 15.8522 27.92 18.1722 26.72C20.4922 25.52 23.1989 24.92 26.2922 24.92C29.1989 24.92 32.4655 25.3333 36.0922 26.16L35.6522 33.6H31.6122L30.5322 28.48C30.2655 28.2133 29.7589 27.9733 29.0122 27.76C28.2655 27.52 27.2922 27.4 26.0922 27.4C23.4789 27.4 21.4255 28.4667 19.9322 30.6C18.4389 32.7067 17.6922 35.76 17.6922 39.76C17.6922 43.68 18.3322 46.8533 19.6122 49.28C20.8922 51.68 22.8389 52.88 25.4522 52.88C26.5189 52.88 27.5189 52.7467 28.4522 52.48C29.3855 52.2133 30.0922 51.8667 30.5722 51.44V42.84L26.3322 42.44V39.76H38.4922V42.44L36.3722 42.8V53.4C35.8122 53.4267 34.7989 53.6533 33.3322 54.08C31.6255 54.5333 30.1589 54.8667 28.9322 55.08C27.7322 55.32 26.3989 55.44 24.9322 55.44ZM41.0578 52.64L43.6978 52.32V36.56L41.1378 35.84V33.08L47.3378 32.24H47.4578L48.4578 33.04V33.92L48.3378 37.16H48.4578C48.6445 36.6267 49.0845 35.9733 49.7778 35.2C50.4711 34.4 51.3378 33.7067 52.3778 33.12C53.4445 32.5067 54.5911 32.2 55.8178 32.2C56.4045 32.2 56.9111 32.28 57.3378 32.44V38.44C56.5378 37.88 55.5645 37.6 54.4178 37.6C52.4711 37.6 50.7778 38.12 49.3378 39.16V52.28L53.9778 52.64V55H41.0578V52.64ZM69.9659 55.44C66.4459 55.44 63.8193 54.4133 62.0859 52.36C60.3793 50.28 59.5259 47.4533 59.5259 43.88C59.5259 41.48 59.9659 39.4 60.8459 37.64C61.7526 35.88 63.0193 34.5333 64.6459 33.6C66.2726 32.6667 68.1526 32.2 70.2859 32.2C72.9526 32.2 75.0059 32.9067 76.4459 34.32C77.8859 35.7067 78.6326 37.6933 78.6859 40.28C78.6859 42.04 78.5793 43.3467 78.3659 44.2H65.3659C65.4726 46.6267 66.0459 48.52 67.0859 49.88C68.1259 51.2133 69.6059 51.88 71.5259 51.88C72.5659 51.88 73.6326 51.7067 74.7259 51.36C75.8459 51.0133 76.7259 50.6 77.3659 50.12L78.3659 52.32C77.6459 53.0933 76.4726 53.8133 74.8459 54.48C73.2459 55.12 71.6193 55.44 69.9659 55.44ZM73.0859 41.8C73.1393 41.0533 73.1659 40.48 73.1659 40.08C73.1659 36.5333 71.9793 34.76 69.6059 34.76C68.2993 34.76 67.2859 35.28 66.5659 36.32C65.8459 37.36 65.4459 39.1867 65.3659 41.8H73.0859ZM91.9581 55.44C88.4381 55.44 85.8115 54.4133 84.0781 52.36C82.3715 50.28 81.5181 47.4533 81.5181 43.88C81.5181 41.48 81.9581 39.4 82.8381 37.64C83.7448 35.88 85.0115 34.5333 86.6381 33.6C88.2648 32.6667 90.1448 32.2 92.2781 32.2C94.9448 32.2 96.9981 32.9067 98.4381 34.32C99.8781 35.7067 100.625 37.6933 100.678 40.28C100.678 42.04 100.571 43.3467 100.358 44.2H87.3581C87.4648 46.6267 88.0381 48.52 89.0781 49.88C90.1181 51.2133 91.5981 51.88 93.5181 51.88C94.5581 51.88 95.6248 51.7067 96.7181 51.36C97.8381 51.0133 98.7181 50.6 99.3581 50.12L100.358 52.32C99.6381 53.0933 98.4648 53.8133 96.8381 54.48C95.2381 55.12 93.6115 55.44 91.9581 55.44ZM95.0781 41.8C95.1315 41.0533 95.1581 40.48 95.1581 40.08C95.1581 36.5333 93.9715 34.76 91.5981 34.76C90.2915 34.76 89.2781 35.28 88.5581 36.32C87.8381 37.36 87.4381 39.1867 87.3581 41.8H95.0781ZM106.11 36.56L103.55 35.84V33.08L110.19 32.24H110.31L111.31 33.04V34.6L111.27 35.56C112.204 34.68 113.417 33.92 114.91 33.28C116.404 32.64 117.91 32.32 119.43 32.32C121.057 32.32 122.324 32.6267 123.23 33.24C124.164 33.8267 124.83 34.76 125.23 36.04C125.63 37.32 125.83 39.0533 125.83 41.24V52.28L128.27 52.6V55H117.95V52.6L120.11 52.28V41.24C120.11 39.8533 120.017 38.7733 119.83 38C119.644 37.2 119.297 36.6267 118.79 36.28C118.31 35.9067 117.617 35.72 116.71 35.72C115.19 35.72 113.564 36.3733 111.83 37.68V52.24L114.23 52.6V55H103.79V52.6L106.11 52.24V36.56ZM140.349 52.6L143.509 52.2V28.28L140.509 27.72V25.28H146.309C146.816 25.28 147.376 25.2667 147.989 25.24C148.602 25.2133 149.069 25.1867 149.389 25.16C150.776 25.0533 151.922 25 152.829 25C155.576 25 157.776 25.28 159.429 25.84C161.082 26.4 162.282 27.2533 163.029 28.4C163.776 29.5467 164.149 31.0533 164.149 32.92C164.149 34.76 163.656 36.4667 162.669 38.04C161.682 39.6133 160.256 40.6933 158.389 41.28C159.456 41.7333 160.402 42.56 161.229 43.76C162.056 44.96 162.936 46.52 163.869 48.44C164.536 49.7467 165.042 50.6933 165.389 51.28C165.762 51.84 166.122 52.16 166.469 52.24L167.789 52.64V55H160.989C160.562 55 160.109 54.5733 159.629 53.72C159.176 52.84 158.576 51.4667 157.829 49.6C156.949 47.4133 156.189 45.7067 155.549 44.48C154.909 43.2533 154.229 42.4933 153.509 42.2H149.389V52.2L153.069 52.6V55H140.349V52.6ZM153.069 39.76C154.589 39.76 155.776 39.2133 156.629 38.12C157.482 37.0267 157.909 35.3867 157.909 33.2C157.909 31.2533 157.482 29.8133 156.629 28.88C155.802 27.9467 154.362 27.48 152.309 27.48C151.562 27.48 150.922 27.52 150.389 27.6C149.882 27.6533 149.549 27.68 149.389 27.68V39.68C149.709 39.7333 150.482 39.76 151.709 39.76H153.069ZM169.417 43.92C169.417 41.4133 169.911 39.28 170.897 37.52C171.911 35.76 173.257 34.44 174.937 33.56C176.617 32.6533 178.444 32.2 180.417 32.2C183.777 32.2 186.364 33.24 188.177 35.32C190.017 37.3733 190.937 40.1733 190.937 43.72C190.937 46.2533 190.431 48.4133 189.417 50.2C188.431 51.96 187.097 53.28 185.417 54.16C183.764 55.0133 181.937 55.44 179.937 55.44C176.604 55.44 174.017 54.4133 172.177 52.36C170.337 50.28 169.417 47.4667 169.417 43.92ZM180.257 52.84C183.271 52.84 184.777 49.9333 184.777 44.12C184.777 41.08 184.417 38.7733 183.697 37.2C182.977 35.6 181.804 34.8 180.177 34.8C177.084 34.8 175.537 37.7067 175.537 43.52C175.537 46.56 175.911 48.88 176.657 50.48C177.431 52.0533 178.631 52.84 180.257 52.84ZM194.573 43.92C194.573 41.4133 195.067 39.28 196.053 37.52C197.067 35.76 198.413 34.44 200.093 33.56C201.773 32.6533 203.6 32.2 205.573 32.2C208.933 32.2 211.52 33.24 213.333 35.32C215.173 37.3733 216.093 40.1733 216.093 43.72C216.093 46.2533 215.587 48.4133 214.573 50.2C213.587 51.96 212.253 53.28 210.573 54.16C208.92 55.0133 207.093 55.44 205.093 55.44C201.76 55.44 199.173 54.4133 197.333 52.36C195.493 50.28 194.573 47.4667 194.573 43.92ZM205.413 52.84C208.427 52.84 209.933 49.9333 209.933 44.12C209.933 41.08 209.573 38.7733 208.853 37.2C208.133 35.6 206.96 34.8 205.333 34.8C202.24 34.8 200.693 37.7067 200.693 43.52C200.693 46.56 201.067 48.88 201.813 50.48C202.587 52.0533 203.787 52.84 205.413 52.84ZM219.73 52.6L221.97 52.24V36.56L219.41 35.84V33.08L226.05 32.24L226.53 32.56L227.13 33.88V35.56C228.01 34.7067 229.263 33.96 230.89 33.32C232.543 32.6533 233.97 32.32 235.17 32.32C236.61 32.32 237.77 32.56 238.65 33.04C239.556 33.52 240.236 34.2667 240.69 35.28C241.57 34.48 242.73 33.7867 244.17 33.2C245.61 32.6133 247.023 32.32 248.41 32.32C250.783 32.32 252.463 33.0133 253.45 34.4C254.436 35.7867 254.93 38.0533 254.93 41.2V52.24L257.53 52.6V55H247.17V52.6L249.25 52.24V41.36C249.25 39.28 248.996 37.8267 248.49 37C248.01 36.1467 247.076 35.72 245.69 35.72C244.943 35.72 244.17 35.8933 243.37 36.24C242.596 36.56 241.903 36.96 241.29 37.44C241.476 38.4533 241.57 39.72 241.57 41.24V52.24L244.05 52.6V55H233.61V52.6L235.81 52.24V41.24C235.81 39.8533 235.716 38.7733 235.53 38C235.37 37.2 235.05 36.6267 234.57 36.28C234.09 35.9067 233.396 35.72 232.49 35.72C231.636 35.72 230.783 35.92 229.93 36.32C229.103 36.6933 228.356 37.1467 227.69 37.68V52.24L230.05 52.6V55H219.73V52.6Z" fill="#464646"/>
<path d="M300.96 34.9559V15.7094C300.96 13.6905 302.979 12.0754 304.997 12.0754C307.016 12.0754 309.035 13.6905 309.035 15.7094V34.9559" stroke="#464646" stroke-width="2" stroke-miterlimit="10" stroke-linecap="round" stroke-linejoin="round"/>
<path d="M304.997 34.956V13.4214" stroke="#464646" stroke-width="2" stroke-miterlimit="10" stroke-linecap="round" stroke-linejoin="round"/>
<path d="M315.765 34.956V7.63394C315.765 5.61507 317.784 4 319.802 4C321.821 4 323.84 5.61507 323.84 7.63394V34.956" stroke="#464646" stroke-width="2" stroke-miterlimit="10" stroke-linecap="round" stroke-linejoin="round"/>
<path d="M319.802 34.956V5.34595" stroke="#464646" stroke-width="2" stroke-miterlimit="10" stroke-linecap="round" stroke-linejoin="round"/>
</svg>
